<?xml version="1.0" encoding="utf-8"?>
<!-- Generator: Adobe Illustrator 19.0.0, SVG Export Plug-In . SVG Version: 6.00 Build 0)  -->
<svg version="1.1" id="Layer_1" xmlns="http://www.w3.org/2000/svg" xmlns:xlink="http://www.w3.org/1999/xlink" x="0px" y="0px"
	 viewBox="-329 131 300 300" style="enable-background:new -329 131 300 300;" xml:space="preserve">
<style type="text/css">
	.st0{fill:#FFFFFF;}
	.st1{fill:#CA177D;}
</style>
<g id="Layer_2">
	<rect x="-329" y="131" class="st0" width="300" height="300"/>
</g>
<g id="Layer_1_1_">
	<path id="XMLID_71_" class="st1" d="M-89.6,244.8l-7.1,3.6c0.2,28.8,0.2,81.1,0.2,81.1l-0.1,5.1l-4.6,3l-76.8,43.8
		c0,0-79.3-45.6-88.5-50.8v7.7c0.9,0.8,88.5,51.5,88.5,51.5l83.4-47.8l5.1-3v-5.5C-89.6,333.5-89.7,276.2-89.6,244.8z"/>
	<path id="XMLID_70_" class="st1" d="M-101.1,251.4l-7,3.8c0,18.4,0,66.9,0,66.9v5.8l-5.2,3.3l-64.7,36.4c0,0-83.8-47.8-88.5-50.4
		v7.7c0.6,0.6,88.5,50.4,88.5,50.4l71.8-40.2l5.2-3.1l-0.1-6C-101,326.1-101.1,271.8-101.1,251.4z"/>
	<path id="XMLID_69_" class="st1" d="M-119.7,260.3c0,15.1,0,55.8,0,55.8v5.2l-4.7,2.9l-53.6,29.5c0,0-81.1-45.7-88.5-49.9v7.8
		c1,0.9,88.5,49.8,88.5,49.8l60.2-32.8l5.2-2.9v-6.2c0,0,0-46.2-0.1-63.1L-119.7,260.3z"/>
	<path id="XMLID_68_" class="st1" d="M-131.6,266c0.1,10.7,0.1,41.5,0.1,41.5v7.3l-6.4,3.8L-178,341c0,0-83.9-48-88.5-50.6v7.7
		c0.6,0.6,88.5,50.7,88.5,50.7l48.8-27.3l4.9-2.5v-6c0,0,0-37.4,0-50.8L-131.6,266z"/>
	<path id="XMLID_67_" class="st1" d="M-143.2,271c0,8,0,31.3,0,31.3v5.7l-4.9,2.9l-29.9,16.2l-6.4-3.1c0,0-80-45.7-82.1-46.8v7.6
		c0.6,0.6,88.5,50.9,88.5,50.9l37.5-21.5l4.4-2.6l0.1-5.3c0,0,0.1-29.2,0.1-39.2L-143.2,271z"/>
	<path id="XMLID_66_" class="st1" d="M-154.8,276.3c0.1,7.7,0.1,24.8,0.1,24.8l-23.3,12.4l-6.4-3.1c0,0-80-45.7-82.1-46.8v7.6
		c0.6,0.6,88.5,50.9,88.5,50.9l30.4-17.4c0,0,0.2-22.9,0.2-32.3L-154.8,276.3z"/>
	<path id="XMLID_65_" class="st1" d="M-160.1,278.2l-7.4,3.8c0,0.3-0.1,0.6-0.1,1c0.1,4.6,0.1,11.4,0.1,12.1l-10.6,5.2l-6.4-3.1
		c0,0-80-45.7-82.1-46.8v7.6c0.6,0.6,88.5,50.9,88.5,50.9l17.7-10.2C-160.2,298.6-160,289.8-160.1,278.2L-160.1,278.2z"/>
	<path id="XMLID_64_" class="st1" d="M-172.8,291.7c0-3.2,0-3.2,0-7.4l0,0l-7.4,3.8c0,0.3-0.1,0.6-0.1,1c0,1.9,0.1,4.3,0.1,6.4
		L-172.8,291.7z"/>
	<path id="XMLID_63_" class="st1" d="M-177.8,314l-0.2,0.1l-5-2.7c0,0-46.4-26.8-69.7-40.1c-3.5-2-10.3-5.6-13.8-7.6v7.3
		c0.4,0.5,0.8,1,1.3,1.3c26.8,15.7,83.9,48,83.9,48l3.3,1.9l0.2-0.1L-177.8,314L-177.8,314z"/>
	<g id="XMLID_73_">
		<path id="XMLID_78_" class="st1" d="M-254.5,238.7v-63.1h27.9c10.1,0,18.7,8.7,18.7,18.8c0,4.3-1.6,8.3-4,11.4
			c4.3,3.5,7.2,8.8,7.2,14.5c0,10-8.5,18.5-18.5,18.5L-254.5,238.7L-254.5,238.7z M-229.9,200.3c3,0,5.5-2.4,5.5-5.5
			c0-3-2.4-5.5-5.5-5.5h-8v10.9L-229.9,200.3L-229.9,200.3z M-226.8,225.1c3,0,5.5-2.4,5.5-5.5s-2.6-5.5-5.5-5.5h-11.1V225h11.1
			V225.1z"/>
		<path id="XMLID_76_" class="st1" d="M-204.8,175.5h49.8V192h-16.8v46.7h-16.6V192h-16.4V175.5z"/>
		<path id="XMLID_74_" class="st1" d="M-134.1,213.6c0,4.5,3.7,8.3,8.3,8.3c4.5,0,8.3-3.7,8.3-8.3v-38h16.5v38.2
			c0,13.9-11.2,24.9-24.9,24.9c-13.9,0-24.9-11-24.9-24.9v-38.2h16.7V213.6L-134.1,213.6z"/>
	</g>
</g>
</svg>
